HIERARCHY
ROOT Hips
{
  OFFSET -19.0583 96.0243 -1.88019
  CHANNELS 6 Xposition Yposition Zposition Zrotation Xrotation Yrotation
  JOINT Spine
  {
    OFFSET 0 10.1816 0.1315
    CHANNELS 6 Xposition Yposition Zposition Zrotation Xrotation Yrotation
    JOINT Spine1
    {
      OFFSET 0 10.0835 -1.0008
      CHANNELS 6 Xposition Yposition Zposition Zrotation Xrotation Yrotation
      JOINT Spine2
      {
        OFFSET 0 9.1 -1.3734
        CHANNELS 6 Xposition Yposition Zposition Zrotation Xrotation Yrotation
        JOINT Neck
        {
          OFFSET 0 16.6717 -2.5162
          CHANNELS 6 Xposition Yposition Zposition Zrotation Xrotation Yrotation
          JOINT Head
          {
            OFFSET 0 9.6179 1.685
            CHANNELS 6 Xposition Yposition Zposition Zrotation Xrotation Yrotation
            JOINT HeadTop_End
            {
              OFFSET 0 17.8152 2.585
              CHANNELS 6 Xposition Yposition Zposition Zrotation Xrotation Yrotation
              End Site
              {
                OFFSET 0 0 0
              }
            }
            JOINT LeftEye
            {
              OFFSET 3.0676 6.4095 9.2836
              CHANNELS 6 Xposition Yposition Zposition Zrotation Xrotation Yrotation
              End Site
              {
                OFFSET 0 0 0
              }
            }
            JOINT RightEye
            {
              OFFSET -3.0676 6.4095 9.2835
              CHANNELS 6 Xposition Yposition Zposition Zrotation Xrotation Yrotation
              End Site
              {
                OFFSET 0 0 0
              }
            }
          }
        }
        JOINT LeftShoulder
        {
          OFFSET 4.5704 10.946 -2.628
          CHANNELS 6 Xposition Yposition Zposition Zrotation Xrotation Yrotation
          JOINT LeftArm
          {
            OFFSET 10.5924 -0.5246 -2.2321
            CHANNELS 6 Xposition Yposition Zposition Zrotation Xrotation Yrotation
            JOINT LeftForeArm
            {
              OFFSET 27.8415 -0.0001 0
              CHANNELS 6 Xposition Yposition Zposition Zrotation Xrotation Yrotation
              JOINT LeftHand
              {
                OFFSET 28.3288 0 0
                CHANNELS 6 Xposition Yposition Zposition Zrotation Xrotation Yrotation
                JOINT LeftHandThumb1
                {
                  OFFSET 2.4661 -1.575 2.6824
                  CHANNELS 6 Xposition Yposition Zposition Zrotation Xrotation Yrotation
                  JOINT LeftHandThumb2
                  {
                    OFFSET 3.2298 -1.8647 1.8647
                    CHANNELS 6 Xposition Yposition Zposition Zrotation Xrotation Yrotation
                    JOINT LeftHandThumb3
                    {
                      OFFSET 2.6526 -1.5315 1.5315
                      CHANNELS 6 Xposition Yposition Zposition Zrotation Xrotation Yrotation
                      End Site
                      {
                        OFFSET 1.9546 -1.1285 1.1285
                      }
                    }
                  }
                }
                JOINT LeftHandIndex1
                {
                  OFFSET 9.1093 -0.5171 2.2601
                  CHANNELS 6 Xposition Yposition Zposition Zrotation Xrotation Yrotation
                  JOINT LeftHandIndex2
                  {
                    OFFSET 3.6764 0 0
                    CHANNELS 6 Xposition Yposition Zposition Zrotation Xrotation Yrotation
                    JOINT LeftHandIndex3
                    {
                      OFFSET 2.8831 0 0
                      CHANNELS 6 Xposition Yposition Zposition Zrotation Xrotation Yrotation
                      End Site
                      {
                        OFFSET 2.3927 0 0
                      }
                    }
                  }
                }
                JOINT LeftHandMiddle1
                {
                  OFFSET 9.5334 0 0
                  CHANNELS 6 Xposition Yposition Zposition Zrotation Xrotation Yrotation
                  JOINT LeftHandMiddle2
                  {
                    OFFSET 3.6982 0 0
                    CHANNELS 6 Xposition Yposition Zposition Zrotation Xrotation Yrotation
                    JOINT LeftHandMiddle3
                    {
                      OFFSET 2.9509 0 0
                      CHANNELS 6 Xposition Yposition Zposition Zrotation Xrotation Yrotation
                      End Site
                      {
                        OFFSET 2.8339 0 0
                      }
                    }
                  }
                }
                JOINT LeftHandRing1
                {
                  OFFSET 9.1045 -0.0439 -1.8651
                  CHANNELS 6 Xposition Yposition Zposition Zrotation Xrotation Yrotation
                  JOINT LeftHandRing2
                  {
                    OFFSET 3.154 0 0
                    CHANNELS 6 Xposition Yposition Zposition Zrotation Xrotation Yrotation
                    JOINT LeftHandRing3
                    {
                      OFFSET 2.9377 0 0
                      CHANNELS 6 Xposition Yposition Zposition Zrotation Xrotation Yrotation
                      End Site
                      {
                        OFFSET 2.6475 0 0
                      }
                    }
                  }
                }
                JOINT LeftHandPinky1
                {
                  OFFSET 8.0778 -0.4887 -3.8061
                  CHANNELS 6 Xposition Yposition Zposition Zrotation Xrotation Yrotation
                  JOINT LeftHandPinky2
                  {
                    OFFSET 3.6 0 0
                    CHANNELS 6 Xposition Yposition Zposition Zrotation Xrotation Yrotation
                    JOINT LeftHandPinky3
                    {
                      OFFSET 2.1142 0 0
                      CHANNELS 6 Xposition Yposition Zposition Zrotation Xrotation Yrotation
                      End Site
                      {
                        OFFSET 1.9757 0 0
                      }
                    }
                  }
                }
              }
            }
          }
        }
        JOINT RightShoulder
        {
          OFFSET -4.57 10.9462 -2.628
          CHANNELS 6 Xposition Yposition Zposition Zrotation Xrotation Yrotation
          JOINT RightArm
          {
            OFFSET -10.5928 -0.5248 -2.2321
            CHANNELS 6 Xposition Yposition Zposition Zrotation Xrotation Yrotation
            JOINT RightForeArm
            {
              OFFSET -27.8415 0 0
              CHANNELS 6 Xposition Yposition Zposition Zrotation Xrotation Yrotation
              JOINT RightHand
              {
                OFFSET -28.3288 0 0.0001
                CHANNELS 6 Xposition Yposition Zposition Zrotation Xrotation Yrotation
                JOINT RightHandPinky1
                {
                  OFFSET -8.0767 -0.4885 -3.806
                  CHANNELS 6 Xposition Yposition Zposition Zrotation Xrotation Yrotation
                  JOINT RightHandPinky2
                  {
                    OFFSET -3.6 0 0.0001
                    CHANNELS 6 Xposition Yposition Zposition Zrotation Xrotation Yrotation
                    JOINT RightHandPinky3
                    {
                      OFFSET -2.1142 0 0
                      CHANNELS 6 Xposition Yposition Zposition Zrotation Xrotation Yrotation
                      End Site
                      {
                        OFFSET -1.9757 0 0
                      }
                    }
                  }
                }
                JOINT RightHandRing1
                {
                  OFFSET -9.1036 -0.0439 -1.8651
                  CHANNELS 6 Xposition Yposition Zposition Zrotation Xrotation Yrotation
                  JOINT RightHandRing2
                  {
                    OFFSET -3.154 0 0
                    CHANNELS 6 Xposition Yposition Zposition Zrotation Xrotation Yrotation
                    JOINT RightHandRing3
                    {
                      OFFSET -2.9377 0 0
                      CHANNELS 6 Xposition Yposition Zposition Zrotation Xrotation Yrotation
                      End Site
                      {
                        OFFSET -2.6475 0 0
                      }
                    }
                  }
                }
                JOINT RightHandMiddle1
                {
                  OFFSET -9.5325 0 0
                  CHANNELS 6 Xposition Yposition Zposition Zrotation Xrotation Yrotation
                  JOINT RightHandMiddle2
                  {
                    OFFSET -3.6982 0 0
                    CHANNELS 6 Xposition Yposition Zposition Zrotation Xrotation Yrotation
                    JOINT RightHandMiddle3
                    {
                      OFFSET -2.9509 0 0
                      CHANNELS 6 Xposition Yposition Zposition Zrotation Xrotation Yrotation
                      End Site
                      {
                        OFFSET -2.8339 0 0.0001
                      }
                    }
                  }
                }
                JOINT RightHandIndex1
                {
                  OFFSET -9.1083 -0.5168 2.2601
                  CHANNELS 6 Xposition Yposition Zposition Zrotation Xrotation Yrotation
                  JOINT RightHandIndex2
                  {
                    OFFSET -3.6764 0 0
                    CHANNELS 6 Xposition Yposition Zposition Zrotation Xrotation Yrotation
                    JOINT RightHandIndex3
                    {
                      OFFSET -2.8831 0 0
                      CHANNELS 6 Xposition Yposition Zposition Zrotation Xrotation Yrotation
                      End Site
                      {
                        OFFSET -2.3927 0 0
                      }
                    }
                  }
                }
                JOINT RightHandThumb1
                {
                  OFFSET -2.4648 -1.5727 2.6826
                  CHANNELS 6 Xposition Yposition Zposition Zrotation Xrotation Yrotation
                  JOINT RightHandThumb2
                  {
                    OFFSET -3.2298 -1.8647 1.8647
                    CHANNELS 6 Xposition Yposition Zposition Zrotation Xrotation Yrotation
                    JOINT RightHandThumb3
                    {
                      OFFSET -2.6526 -1.5314 1.5314
                      CHANNELS 6 Xposition Yposition Zposition Zrotation Xrotation Yrotation
                      End Site
                      {
                        OFFSET -1.9546 -1.1285 1.1285
                      }
                    }
                  }
                }
              }
            }
          }
        }
      }
    }
  }
  JOINT LeftUpLeg
  {
    OFFSET 8.2078 -6.7517 -1.5996
    CHANNELS 6 Xposition Yposition Zposition Zrotation Xrotation Yrotation
    JOINT LeftLeg
    {
      OFFSET 0 -44.3705 0.2846
      CHANNELS 6 Xposition Yposition Zposition Zrotation Xrotation Yrotation
      JOINT LeftFoot
      {
        OFFSET 0 -44.4279 -2.9822
        CHANNELS 6 Xposition Yposition Zposition Zrotation Xrotation Yrotation
        JOINT LeftToeBase
        {
          OFFSET 0 -8.7287 10.7106
          CHANNELS 6 Xposition Yposition Zposition Zrotation Xrotation Yrotation
          End Site
          {
            OFFSET 0 -0.0007 9.2781
          }
        }
      }
    }
  }
  JOINT RightUpLeg
  {
    OFFSET -8.2078 -6.7517 -1.5996
    CHANNELS 6 Xposition Yposition Zposition Zrotation Xrotation Yrotation
    JOINT RightLeg
    {
      OFFSET 0 -44.3705 0.2862
      CHANNELS 6 Xposition Yposition Zposition Zrotation Xrotation Yrotation
      JOINT RightFoot
      {
        OFFSET 0 -44.4277 -2.9838
        CHANNELS 6 Xposition Yposition Zposition Zrotation Xrotation Yrotation
        JOINT RightToeBase
        {
          OFFSET 0 -8.7287 10.7106
          CHANNELS 6 Xposition Yposition Zposition Zrotation Xrotation Yrotation
          End Site
          {
            OFFSET 0 -0.0007 9.2781
          }
        }
      }
    }
  }
}
MOTION
Frames:	4
Frame Time:	0.0333333
-25.1626 97.8533 -3.29255 -14.4552 19.0485 21.3999 0 10.1816 0.1315 5.3873 -0.0867698 -2.07006 -3.55271e-015 10.0835 -1.0008 7.85524 -0.221868 -5.1801 0 9.1 -1.3734 7.93036 -0.104565 -5.09398 0 16.6717 -2.5162 -0.409128 -5.99041 1.14828 2.66454e-015 9.6179 1.685 0.793901 -1.45081 5.02707 2.22045e-016 17.8152 2.585 -1.19271e-015 -6.36111e-015 1.59028e-015 3.0676 6.4095 9.2836 -1.19271e-015 -6.36111e-015 1.59028e-015 -3.0676 6.4095 9.2835 -1.19271e-015 -6.36111e-015 1.59028e-015 4.5704 10.946 -2.628 -4.22652 -1.75742 9.71066 10.5924 -0.5246 -2.2321 0.048998 19.0926 -92.1407 27.8415 -0.0001 1.77636e-015 -0.000205081 -2.76726e-006 -76.8534 28.3288 0 0 20.0626 8.20814 -35.5763 2.4661 -1.575 2.6824 6.83205 -0.56634 8.92632 3.2298 -1.8647 1.8647 15.4508 5.93209 21.8676 2.6526 -1.5315 1.5315 10.0259 -0.188398 9.12514 9.1093 -0.5171 2.2601 -5.89521e-015 -3.18055e-015 2.34814e-015 3.6764 0 -3.55271e-015 -2.16381e-005 -3.08318e-006 5.21454e-007 2.8831 1.42109e-014 0 5.93248e-016 3.18055e-015 6.58474e-016 9.5334 0 3.55271e-015 0.0159845 -4.27974e-006 -0.00192051 3.6982 1.42109e-014 -3.55271e-015 -0.0159806 -1.9786e-006 0.00192121 2.9509 1.42109e-014 3.55271e-015 3.05631e-015 6.36111e-015 1.73937e-016 9.1045 -0.0439 -1.8651 -5.89521e-015 -3.18055e-015 2.34814e-015 3.154 -1.42109e-014 0 -2.85177e-006 -7.41089e-007 1.62032e-006 2.9377 0 7.10543e-015 -1.04983e-015 -6.36111e-015 1.62134e-015 8.0778 -0.4887 -3.8061 0.507964 0.0179809 4.05448 3.6 0 0 -0.507966 0.0179842 -4.05448 2.1142 0 7.10543e-015 4.34841e-016 0 -8.94531e-016 -4.57 10.9462 -2.628 3.03337 -1.04745 -9.81779 -10.5928 -0.5248 -2.2321 66.3308 47.5755 -0.768748 -27.8415 -1.77636e-015 -1.42109e-014 -6.53472e-006 -5.82656e-006 7.33917 -28.3288 -7.10543e-015 0.0001 -41.5021 -15.8663 -29.4101 -8.0767 -0.4885 -3.806 -6.46424e-006 1.66873e-007 -0.00159141 -3.6 0 0.0001 8.16434e-006 1.01232e-007 0.00159128 -2.1142 0 0 -1.7119e-006 1.57625e-007 -8.61875e-008 -9.1036 -0.0439 -1.8651 -1.72369e-006 1.57625e-007 -2.98905e-007 -3.154 1.42109e-014 0 3.45918e-006 1.10186e-007 8.10529e-007 -2.9377 0 0 -1.7119e-006 -5.50931e-008 -8.61874e-008 -9.5325 1.42109e-014 -1.42109e-014 -1.72369e-006 1.57625e-007 -2.98905e-007 -3.6982 0 0 2.63715e-005 3.67155e-007 9.5125e-007 -2.9509 -1.42109e-014 -1.42109e-014 3.05555e-006 3.10944e-008 -0.00202228 -9.1083 -0.5168 2.2601 -1.72369e-006 1.57625e-007 -2.98905e-007 -3.6764 0 0 9.3572e-006 2.82561e-007 2.74907e-007 -2.8831 0 0 -1.7119e-006 -2.67811e-007 -8.61875e-008 -2.4648 -1.5727 2.6826 -7.0717 -1.02972 -7.16068 -3.2298 -1.8647 1.8647 -1.34741 7.39579 -31.197 -2.6526 -1.5314 1.5314 -3.18968 0.3465 -11.1964 8.2078 -6.7517 -1.5996 -10.6207 -9.58665 4.99028 -7.10543e-015 -44.3705 0.2846 -5.2227 8.51191 10.5397 -7.10543e-015 -44.4279 -2.9822 2.42539 3.22473 20.6804 0 -8.7287 10.7106 0.050958 -32.9301 0.0276822 -8.2078 -6.7517 -1.5996 -1.66062 -35.8727 2.01531 0 -44.3705 0.2862 0.200318 27.6582 -6.90566 -7.10543e-015 -44.4277 -2.9838 10.3976 -14.2395 -13.0169 7.10543e-015 -8.7287 10.7106 3.11729e-006 -2.81431e-006 -2.64641e-006 
-25.0228 98.5847 -2.87475 -13.0533 16.9405 23.6137 3.55271e-015 10.1816 0.1315 4.33115 0.295866 -2.65538 0 10.0835 -1.0008 7.35033 0.558371 -6.20512 0 9.1 -1.3734 7.43984 0.647512 -6.10447 1.77636e-015 16.6717 -2.5162 0.336523 -7.15381 1.03909 8.88178e-016 9.6179 1.685 0.143451 -0.903657 5.29667 -2.22045e-016 17.8152 2.585 3.97569e-015 0 1.59028e-015 3.0676 6.4095 9.2836 3.97569e-015 0 1.59028e-015 -3.0676 6.4095 9.2835 3.97569e-015 0 1.59028e-015 4.5704 10.946 -2.628 -4.35291 -1.4374 8.64437 10.5924 -0.5246 -2.2321 7.87157 29.1716 -94.9567 27.8415 -0.0001 -1.77636e-015 -0.000213885 3.87099e-006 -63.3534 28.3288 1.42109e-014 0 44.6356 3.5298 -29.7145 2.4661 -1.575 2.6824 6.83205 -0.56634 8.92632 3.2298 -1.8647 1.8647 15.4508 5.93209 21.8676 2.6526 -1.5315 1.5315 10.0259 -0.188398 9.12514 9.1093 -0.5171 2.2601 -2.38542e-015 -3.18055e-015 -3.18055e-015 3.6764 0 3.55271e-015 -2.16381e-005 -3.08318e-006 5.21454e-007 2.8831 0 0 -4.77083e-015 -3.18055e-015 -0 9.5334 0 0 0.0159845 -4.27974e-006 -0.00192051 3.6982 0 -7.10543e-015 -0.0159806 -1.9786e-006 0.00192121 2.9509 0 -3.55271e-015 7.95139e-016 1.27222e-014 3.18055e-015 9.1045 -0.0439 -1.8651 -2.38542e-015 -3.18055e-015 -3.18055e-015 3.154 0 -3.55271e-015 -2.85177e-006 -7.41089e-007 1.62032e-006 2.9377 1.42109e-014 7.10543e-015 -8.74653e-015 -3.18055e-015 -3.18055e-015 8.0778 -0.4887 -3.8061 0.507964 0.0179809 4.05448 3.6 0 0 -0.507966 0.0179842 -4.05448 2.1142 -1.42109e-014 0 -7.95139e-015 1.59028e-015 -0 -4.57 10.9462 -2.628 4.61934 -1.78232 -13.1014 -10.5928 -0.5248 -2.2321 59.9863 44.34 7.66372 -27.8415 0 1.42109e-014 -4.72073e-006 2.51173e-006 10.5379 -28.3288 -3.55271e-015 0.0001 -49.4585 -24.2903 -30.446 -8.0767 -0.4885 -3.806 -6.46424e-006 1.66873e-007 -0.00159141 -3.6 1.42109e-014 0.0001 8.16434e-006 1.01232e-007 0.00159128 -2.1142 0 0 -1.7119e-006 1.57625e-007 -8.61875e-008 -9.1036 -0.0439 -1.8651 -1.72369e-006 1.57625e-007 -2.98905e-007 -3.154 0 7.10543e-015 3.45918e-006 1.10186e-007 8.10529e-007 -2.9377 -1.42109e-014 0 -1.7119e-006 -5.50931e-008 -8.61874e-008 -9.5325 0 0 -1.72369e-006 1.57625e-007 -2.98905e-007 -3.6982 -1.42109e-014 0 2.63715e-005 3.67155e-007 9.5125e-007 -2.9509 -1.42109e-014 0 3.05555e-006 3.10944e-008 -0.00202228 -9.1083 -0.5168 2.2601 -1.72369e-006 1.57625e-007 -2.98905e-007 -3.6764 -1.42109e-014 0 9.3572e-006 2.82561e-007 2.74907e-007 -2.8831 0 0 -1.7119e-006 -2.67811e-007 -8.61875e-008 -2.4648 -1.5727 2.6826 -7.0717 -1.02972 -7.16068 -3.2298 -1.8647 1.8647 -1.34741 7.39579 -31.197 -2.6526 -1.5314 1.5314 -3.18968 0.3465 -11.1964 8.2078 -6.7517 -1.5996 -7.72189 -16.6646 7.16754 0 -44.3705 0.2846 -7.95732 25.9859 13.6517 -7.10543e-015 -44.4279 -2.9822 -3.70003 11.6845 17.5112 0 -8.7287 10.7106 2.75737 -40.7982 1.7201 -8.2078 -6.7517 -1.5996 4.67285 -30.9932 20.4299 0 -44.3705 0.2862 -3.52371 26.3438 -5.98338 0 -44.4277 -2.9838 10.0907 -15.6616 1.19533 0 -8.7287 10.7106 -2.47429e-006 -2.12002e-005 -2.85827e-006 
-25.0405 98.5416 -2.43448 -11.935 14.4721 26.3248 0 10.1816 0.1315 3.20466 0.692347 -3.28752 -3.55271e-015 10.0835 -1.0008 6.78826 1.26726 -7.518 0 9.1 -1.3734 6.88228 1.31961 -7.42961 0 16.6717 -2.5162 1.18526 -7.7712 0.946686 3.55271e-015 9.6179 1.685 0.237199 -0.632007 5.64975 1.77636e-015 17.8152 2.585 0 1.59028e-015 -0 3.0676 6.4095 9.2836 0 1.59028e-015 -0 -3.0676 6.4095 9.2835 0 1.59028e-015 -0 4.5704 10.946 -2.628 -4.99457 -1.03803 7.43919 10.5924 -0.5246 -2.2321 12.2902 39.1384 -97.4644 27.8415 -0.0001 0 -0.00022272 -8.29974e-006 -43.0878 28.3288 0 7.10543e-015 53.0105 -3.75419 -37.096 2.4661 -1.575 2.6824 6.83205 -0.56634 8.92632 3.2298 -1.8647 1.8647 15.4508 5.93209 21.8676 2.6526 -1.5315 1.5315 10.0259 -0.188398 9.12514 9.1093 -0.5171 2.2601 3.18055e-015 6.36111e-015 3.18055e-015 3.6764 -1.42109e-014 0 -2.16381e-005 -3.08318e-006 5.21454e-007 2.8831 1.42109e-014 0 -7.95139e-015 -1.59028e-015 -6.36111e-015 9.5334 1.42109e-014 -7.10543e-015 0.0159845 -4.27974e-006 -0.00192051 3.6982 0 7.10543e-015 -0.0159806 -1.9786e-006 0.00192121 2.9509 0 0 -1.59028e-015 4.77083e-015 -6.36111e-015 9.1045 -0.0439 -1.8651 3.18055e-015 6.36111e-015 3.18055e-015 3.154 0 0 -2.85177e-006 -7.41089e-007 1.62032e-006 2.9377 1.42109e-014 0 3.18055e-015 -1.59028e-015 -3.18055e-015 8.0778 -0.4887 -3.8061 0.507964 0.0179809 4.05448 3.6 0 0 -0.507966 0.0179842 -4.05448 2.1142 1.42109e-014 7.10543e-015 -6.36111e-015 -1.59028e-015 3.18055e-015 -4.57 10.9462 -2.628 6.27855 -2.55506 -15.8551 -10.5928 -0.5248 -2.2321 58.1386 39.1155 14.2929 -27.8415 -7.10543e-015 0 -2.80193e-007 2.87981e-006 11.3673 -28.3288 0 0.0001 -53.9273 -30.7031 -24.0432 -8.0767 -0.4885 -3.806 -6.46424e-006 1.66873e-007 -0.00159141 -3.6 0 0.0001 8.16434e-006 1.01232e-007 0.00159128 -2.1142 -1.42109e-014 1.77636e-015 -1.7119e-006 1.57625e-007 -8.61875e-008 -9.1036 -0.0439 -1.8651 -1.72369e-006 1.57625e-007 -2.98905e-007 -3.154 0 -1.77636e-015 3.45918e-006 1.10186e-007 8.10529e-007 -2.9377 -1.42109e-014 0 -1.7119e-006 -5.50931e-008 -8.61874e-008 -9.5325 0 0 -1.72369e-006 1.57625e-007 -2.98905e-007 -3.6982 -1.42109e-014 8.88178e-016 2.63715e-005 3.67155e-007 9.5125e-007 -2.9509 0 0 3.05555e-006 3.10944e-008 -0.00202228 -9.1083 -0.5168 2.2601 -1.72369e-006 1.57625e-007 -2.98905e-007 -3.6764 -2.84217e-014 0 9.3572e-006 2.82561e-007 2.74907e-007 -2.8831 -1.42109e-014 -1.77636e-015 -1.7119e-006 -2.67811e-007 -8.61875e-008 -2.4648 -1.5727 2.6826 -7.0717 -1.02972 -7.16068 -3.2298 -1.8647 1.8647 -1.34741 7.39579 -31.197 -2.6526 -1.5314 1.5314 -3.18968 0.3465 -11.1964 8.2078 -6.7517 -1.5996 -3.82561 -24.6282 9.97133 -3.55271e-015 -44.3705 0.2846 -10.0356 45.1163 17.0926 3.55271e-015 -44.4279 -2.9822 -4.07914 19.2202 11.3949 0 -8.7287 10.7106 -7.4361e-006 -34.1741 -1.61182e-005 -8.2078 -6.7517 -1.5996 9.14011 -26.0213 33.27 3.55271e-015 -44.3705 0.2862 -5.81238 27.9977 1.585 -3.55271e-015 -44.4277 -2.9838 6.28452 -19.0861 0.818847 3.55271e-015 -8.7287 10.7106 7.27267e-007 -6.54294e-005 9.54166e-015 
-25.0657 97.8696 -2.24156 -11.9898 11.6206 29.7377 0 10.1816 0.1315 2.41782 1.09865 -4.02507 3.55271e-015 10.0835 -1.0008 6.57558 1.85894 -9.09707 -3.55271e-015 9.1 -1.3734 6.67619 1.8628 -9.01874 0 16.6717 -2.5162 2.01974 -7.7363 0.738129 -3.55271e-015 9.6179 1.685 0.720954 -1.07938 5.42148 0 17.8152 2.585 4.41391e-032 -1.59028e-015 1.59028e-015 3.0676 6.4095 9.2836 4.41391e-032 -1.59028e-015 1.59028e-015 -3.0676 6.4095 9.2835 4.41391e-032 -1.59028e-015 1.59028e-015 4.5704 10.946 -2.628 -5.77468 -0.588044 6.12363 10.5924 -0.5246 -2.2321 3.36208 48.3125 -90.8189 27.8415 -0.0001 -8.88178e-016 -0.000213699 2.75833e-006 -25.393 28.3288 7.10543e-015 7.10543e-015 46.9739 -9.33621 -47.4142 2.4661 -1.575 2.6824 6.83205 -0.56634 8.92632 3.2298 -1.8647 1.8647 15.4508 5.93209 21.8676 2.6526 -1.5315 1.5315 10.0259 -0.188398 9.12514 9.1093 -0.5171 2.2601 1.59028e-015 -1.59028e-015 3.18055e-015 3.6764 1.42109e-014 0 -2.16381e-005 -3.08318e-006 5.21454e-007 2.8831 -1.42109e-014 1.42109e-014 1.59028e-015 -4.77083e-015 -6.36111e-015 9.5334 0 0 0.0159845 -4.27974e-006 -0.00192051 3.6982 0 7.10543e-015 -0.0159806 -1.9786e-006 0.00192121 2.9509 0 -7.10543e-015 -1.59028e-015 -1.59028e-015 -6.36111e-015 9.1045 -0.0439 -1.8651 1.59028e-015 -1.59028e-015 3.18055e-015 3.154 0 7.10543e-015 -2.85177e-006 -7.41089e-007 1.62032e-006 2.9377 0 0 -6.36111e-015 0 -3.18055e-015 8.0778 -0.4887 -3.8061 0.507964 0.0179809 4.05448 3.6 1.42109e-014 0 -0.507966 0.0179842 -4.05448 2.1142 -1.42109e-014 0 -4.77083e-015 3.18055e-015 6.36111e-015 -4.57 10.9462 -2.628 8.21141 -3.50926 -18.622 -10.5928 -0.5248 -2.2321 59.3999 33.8112 19.0043 -27.8415 0 7.10543e-015 -4.14494e-008 -1.32896e-006 11.4187 -28.3288 -7.10543e-015 0.0001 -53.824 -31.5496 -12.1234 -8.0767 -0.4885 -3.806 -6.46424e-006 1.66873e-007 -0.00159141 -3.6 0 0.0001 8.16434e-006 1.01232e-007 0.00159128 -2.1142 -1.42109e-014 0 -1.7119e-006 1.57625e-007 -8.61875e-008 -9.1036 -0.0439 -1.8651 -1.72369e-006 1.57625e-007 -2.98905e-007 -3.154 1.42109e-014 -3.55271e-015 3.45918e-006 1.10186e-007 8.10529e-007 -2.9377 1.42109e-014 3.55271e-015 -1.7119e-006 -5.50931e-008 -8.61874e-008 -9.5325 -1.42109e-014 0 -1.72369e-006 1.57625e-007 -2.98905e-007 -3.6982 -1.42109e-014 3.55271e-015 2.63715e-005 3.67155e-007 9.5125e-007 -2.9509 1.42109e-014 0 3.05555e-006 3.10944e-008 -0.00202228 -9.1083 -0.5168 2.2601 -1.72369e-006 1.57625e-007 -2.98905e-007 -3.6764 -1.42109e-014 3.55271e-015 9.3572e-006 2.82561e-007 2.74907e-007 -2.8831 0 0 -1.7119e-006 -2.67811e-007 -8.61875e-008 -2.4648 -1.5727 2.6826 -7.0717 -1.02972 -7.16068 -3.2298 -1.8647 1.8647 -1.34741 7.39579 -31.197 -2.6526 -1.5314 1.5314 -3.18968 0.3465 -11.1964 8.2078 -6.7517 -1.5996 1.22571 -33.0192 11.8515 0 -44.3705 0.2846 -9.65573 62.5494 18.4723 -1.77636e-015 -44.4279 -2.9822 -2.69919 19.5885 6.29768 0 -8.7287 10.7106 -3.18055e-015 -14.776 -0 -8.2078 -6.7517 -1.5996 11.3945 -23.5653 35.658 0 -44.3705 0.2862 -5.95194 31.1533 3.16826 0 -44.4277 -2.9838 4.33554 -21.5435 0.548565 0 -8.7287 10.7106 4.44868e-006 -2.10973 -1.67018e-006 
